<svg width="26" height="24" viewBox="0 0 26 24" fill="none" xmlns="http://www.w3.org/2000/svg">
<path d="M6.98789 0C3.12918 0 0 2.96837 0 6.62879V17.2349C0 20.8953 3.12918 23.8636 6.98789 23.8636H18.1685C22.0272 23.8636 25.1564 20.8953 25.1564 17.2349V6.62879C25.1564 2.96837 22.0272 0 18.1685 0H6.98789ZM20.9637 2.65152C21.7351 2.65152 22.3612 3.24546 22.3612 3.97727C22.3612 4.70909 21.7351 5.30303 20.9637 5.30303C20.1922 5.30303 19.5661 4.70909 19.5661 3.97727C19.5661 3.24546 20.1922 2.65152 20.9637 2.65152ZM12.5782 5.30303C16.4369 5.30303 19.5661 8.27141 19.5661 11.9318C19.5661 15.5922 16.4369 18.5606 12.5782 18.5606C8.71948 18.5606 5.59031 15.5922 5.59031 11.9318C5.59031 8.27141 8.71948 5.30303 12.5782 5.30303ZM12.5782 7.95455C11.4662 7.95455 10.3998 8.37358 9.61348 9.11947C8.82719 9.86535 8.38546 10.877 8.38546 11.9318C8.38546 12.9867 8.82719 13.9983 9.61348 14.7442C10.3998 15.4901 11.4662 15.9091 12.5782 15.9091C13.6902 15.9091 14.7566 15.4901 15.5429 14.7442C16.3292 13.9983 16.7709 12.9867 16.7709 11.9318C16.7709 10.877 16.3292 9.86535 15.5429 9.11947C14.7566 8.37358 13.6902 7.95455 12.5782 7.95455Z" fill="#C95E20"/>
</svg>
