<svg width="26" height="24" viewBox="0 0 26 24" fill="none" xmlns="http://www.w3.org/2000/svg">
<path d="M22.4916 0H2.92553C1.3812 0 0.130371 1.18655 0.130371 2.65152V21.2121C0.130371 22.6771 1.3812 23.8636 2.92553 23.8636H22.4916C24.0359 23.8636 25.2868 22.6771 25.2868 21.2121V2.65152C25.2868 1.18655 24.0359 0 22.4916 0ZM6.75209 18.5606C5.77798 18.5606 4.98835 17.8116 4.98835 16.8875V10.9521C4.98975 10.0294 5.77938 9.28031 6.75209 9.28031C7.7262 9.28031 8.51583 10.0294 8.51583 10.9534V16.8888C8.51583 17.8116 7.7262 18.5606 6.75209 18.5606ZM6.6906 7.57936C5.61307 7.57936 4.89331 6.89792 4.89331 5.98845C4.89331 5.07898 5.61167 4.39754 6.80939 4.39754C7.88692 4.39754 8.60668 5.07898 8.60668 5.98845C8.60668 6.89792 7.88832 7.57936 6.6906 7.57936ZM19.3876 18.5606C18.4456 18.5606 17.6811 17.8354 17.6811 16.9419V13.4883C17.6811 12.0856 16.7713 11.9318 16.4303 11.9318C16.0893 11.9318 14.9517 11.9782 14.9517 13.4883V16.9419C14.9517 17.8354 14.1872 18.5606 13.2452 18.5606H13.132C12.1901 18.5606 11.4256 17.8354 11.4256 16.9419V10.9534C11.4256 10.0294 12.2152 9.28031 13.1893 9.28031C14.1634 9.28031 14.9531 10.0294 14.9531 10.9534C14.9531 10.9534 15.3472 9.28031 18.0249 9.28031C19.7286 9.28031 21.094 10.5756 21.094 13.4883V16.9419C21.094 17.8354 20.3296 18.5606 19.3876 18.5606Z" fill="#C95E20"/>
</svg>
