<svg width="26" height="24" viewBox="0 0 26 24" fill="none" xmlns="http://www.w3.org/2000/svg">
<path d="M19.8271 0H5.8513C2.76405 0 0.260986 2.37443 0.260986 5.30303V18.5606C0.260986 21.4892 2.76405 23.8636 5.8513 23.8636H19.8271C22.9143 23.8636 25.4174 21.4892 25.4174 18.5606V5.30303C25.4174 2.37443 22.9143 0 19.8271 0ZM19.897 8.63599C19.897 8.75 19.897 8.86269 19.897 9.09072C19.897 13.4087 16.4226 18.4095 10.0734 18.4095C8.1573 18.4095 6.36002 17.8407 4.80311 16.9326C5.0421 16.9326 5.40268 16.9326 5.64166 16.9326C7.19856 16.9326 8.75686 16.3638 9.95459 15.5684C8.39769 15.5684 7.19996 14.5462 6.72059 13.296C6.95958 13.296 7.19996 13.41 7.32015 13.41C7.67933 13.41 7.91971 13.41 8.27889 13.296C6.72199 12.9553 5.52426 11.7051 5.52426 10.1142C6.00363 10.3409 6.483 10.4549 7.08117 10.5689C6.12243 9.77349 5.52426 8.86402 5.52426 7.72785C5.52426 7.15909 5.64446 6.59167 6.00363 6.13694C7.68073 8.06856 10.1964 9.43277 13.0712 9.54546C13.0712 9.31875 12.951 9.09072 12.951 8.75C12.951 6.93239 14.5079 5.45417 16.4254 5.45417C17.3841 5.45417 18.3414 5.79489 18.941 6.47633C19.7796 6.36231 20.4979 6.02159 21.0975 5.68087C20.8585 6.47633 20.2589 7.04508 19.5406 7.49849C20.2589 7.38447 20.8585 7.27178 21.5768 6.92974C21.0947 7.61383 20.4965 8.18125 19.897 8.63599Z" fill="#C95E20"/>
</svg>
